<svg id="Слой_1" data-name="Слой 1" xmlns="http://www.w3.org/2000/svg" viewBox="0 0 1949.47 1806.3"><defs><style>.cls-1{fill:#1a1a1a;}.cls-2{fill:#f2f2f2;}.cls-3{fill:#fff;}</style></defs><title>Logo</title><path class="cls-1" d="M78.88,1516.78c-74.3-17.09-88.87-213.54,73.25-451.84a48.73,48.73,0,0,1,9.68-10.49c73.49-59.38,171.93-108.2,301.81-143.7a16.14,16.14,0,0,0,11.88-15.67C473.5,610.25,595.21,368.42,781.37,149a116.87,116.87,0,0,1,62.35-38.2c70.15-16.51,139.48-16.38,208.38-3.24a140,140,0,0,1,71.11,37.15c190.93,185,308.49,413.49,334.15,696.52a16.17,16.17,0,0,0,17.43,14.64c96-7.64,207.08,39.24,321.16,97.09a223.42,223.42,0,0,1,72,57.84c85.22,104.37,127.54,238.93,97.08,424.71a16.1,16.1,0,0,1-22.22,12.17c-263.31-112.35-614-302.43-544.57-209.13a16.09,16.09,0,0,1,3.14,9.93c-2.26,95.74-13.35,182.14-34.06,258.4a16.13,16.13,0,0,1-7.59,9.73c-94.17,53.59-180.5,114.08-209.38,225.06a15.56,15.56,0,0,0-.52,3.59c-.9,34.83,11,44.5,63.39,29a16,16,0,0,0,11.23-12.61q.63-3.6,1.36-7.23c4.09-20.48,34.72-15.06,31.74,5.6-4.12,28.56-9.94,54.29-19.38,74.6a16.4,16.4,0,0,1-3.87,5.27c-81,72.76-137.78,72.8-175.06,14a16.2,16.2,0,0,0-13-7.57l-58-2.41a16.22,16.22,0,0,0-12.36,5c-56.23,58.72-119.36,74.77-192.53,28.72a16.1,16.1,0,0,1-3.13-2.58c-22.83-24.14-43.3-49.59-53.77-80.52-5.86-17.31,16.84-29.56,28-15.1,8,10.3,15.63,16.59,23.1,20.27a15.72,15.72,0,0,0,13.73,0c31.7-15.38,28.17-49.58-11.51-103.07A121.51,121.51,0,0,0,750,1668.28c-31.17-21-65.5-50.35-101.54-84.23a73.52,73.52,0,0,1-17.14-24.16c-36.46-83.68-50.73-187.48-58.76-306.23-.1-1.44,1.12-7,.34-8.23-11.32-17.6-3.4-13.23-24.93-35.62a16.15,16.15,0,0,0-17.87-3.68c-123.56,51.6-273.21,163-437.07,307A16.08,16.08,0,0,1,78.88,1516.78Z" transform="translate(-25.45 -98)"/><ellipse class="cls-2" cx="980.34" cy="1397.58" rx="87.08" ry="131.79" transform="translate(-285.28 126.44) rotate(-11.54)"/><path class="cls-2" d="M1250,1337.88c-1.79,43.18-31.47,101.74-70.1,100.14s-80-59-78.2-102.18,2.73-65.83,81.6-79C1256.51,1244.53,1251.78,1294.7,1250,1337.88Z" transform="translate(-25.45 -98)"/><ellipse class="cls-2" cx="766.71" cy="1346.47" rx="98.84" ry="61.78" transform="translate(-635.86 1958.67) rotate(-87.62)"/><path class="cls-3" d="M1379.41,1236.1a20.77,20.77,0,0,0,27.15-11.13c1.5-3.55,1.93-5.56-1.44-8.93a15.29,15.29,0,0,0-4.54-3.09c-173.5-78.41-654.16-163.92-700.85-72.27a38.94,38.94,0,0,1-22,19.55c-27.42,9.21-70,14.5-101,20.11a29,29,0,0,0-19.06,44.37l5.5,8.41a25.94,25.94,0,0,0,30.86,10C695.11,1205.33,1200.62,1161.38,1379.41,1236.1Z" transform="translate(-25.45 -98)"/></svg>